<svg width="252" height="256" viewBox="0 0 252 256" fill="none" xmlns="http://www.w3.org/2000/svg">
<g style="mix-blend-mode:soft-light">
<g style="mix-blend-mode:soft-light">
<g style="mix-blend-mode:soft-light">
<path d="M236.907 115.947C230.157 108.601 221.32 104.922 209.889 104.702C195.565 104.429 180.949 107.159 168.728 112.396C154.689 118.408 143.775 127.665 137.125 139.179C130.895 149.959 132.123 163.978 140.249 174.894C142.511 177.898 145.107 180.635 147.987 183.053C151.472 185.951 154.733 187.698 157.689 188.263C156.885 194.32 155.374 200.262 153.189 205.969C153.097 206.215 153.131 206.491 153.282 206.707C153.432 206.923 153.68 207.051 153.943 207.051C154.024 207.051 154.106 207.038 154.184 207.015C160.248 205.103 165.868 200.735 170.902 194.03C171.592 194.659 172.315 195.252 173.068 195.805C176.617 198.358 180.187 199.929 184.459 201.504C193.861 204.967 202.509 207.475 213.009 203.043C223.739 198.523 237.585 190.375 244.271 181.078C253.593 168.121 253.284 157.125 249.598 142.513C246.618 130.687 242.466 121.999 236.907 115.947Z" fill="#EBEFF3"/>
</g>
</g>
</g>
<path d="M102.277 87.7545C98.1337 78.1683 92.9042 72.1083 83.6232 66.0787C82.6716 65.4656 81.7304 64.8524 80.7993 64.2393C72.7997 58.9959 65.2528 54.0463 55.4423 52.0657C43.9052 49.7302 30.7721 53.0961 19.4076 61.297C11.1817 67.235 1.16392 76.7945 0.154853 88.6056C-0.746781 99.2069 2.34948 113.586 7.86288 124.386C12.0075 132.39 18.7311 138.781 26.9583 142.536C34.8824 146.221 43.8081 147.202 52.3499 145.325C56.2557 151.889 61.324 157.949 66.1928 163.601C66.3386 163.77 66.5517 163.868 66.776 163.868C67.1825 163.868 67.519 163.554 67.5434 163.151C67.8772 157.777 67.482 150.939 66.4307 143.837C73.1373 142.459 80.9067 139.433 85.7717 136.968C94.6845 132.457 102.016 124.485 105.385 115.643C109.099 105.9 105.673 95.6197 102.277 87.7545Z" fill="#EBEFF3"/>
<path d="M163.416 135.062C159.031 131.365 152.31 131.29 146.71 134.154C146.306 134.362 145.89 134.582 145.445 134.825C143.983 132.793 140.661 132.355 137.772 133.119C136.614 133.427 135.231 133.939 133.55 134.657C133.085 134.856 132.599 135.069 132.071 135.306C131.372 135.62 129.072 136.677 128.664 136.861C126.768 137.711 124.845 138.592 122.081 139.871C121.814 139.994 121.536 140.123 121.216 140.271C117.255 142.106 117.106 142.174 115.645 142.844C111.403 144.787 105.373 147.861 101.135 150.232C99.9501 150.897 97.9567 152.047 95.3795 153.547L95.2777 153.607C93.7768 154.481 92.1751 155.417 90.5776 156.354C90.0185 156.681 89.4998 156.986 89.0347 157.259C88.9338 157.318 88.8585 157.362 88.7747 157.411C88.0986 157.05 86.7529 156.329 86.3043 156.089C85.1469 155.47 84.1838 154.958 83.2529 154.466C82.962 154.312 82.6777 154.162 82.399 154.015C79.7871 152.642 77.6403 151.548 75.8643 150.697C71.4748 148.592 69.686 147.877 67.3334 147.533C65.8399 147.314 64.4177 147.369 63.0141 147.727C59.7242 148.566 58.5132 152.47 60.4746 155.816C61.6391 157.8 63.0995 159.425 66.0144 162.241C66.0349 162.261 66.8806 163.076 67.1218 163.31C67.5384 163.714 67.878 164.047 68.1966 164.366C68.5053 164.675 68.7874 164.964 69.0516 165.243C69.3172 165.524 70.8163 167.099 71.2488 167.559C75.3476 171.916 77.4656 174.857 78.4594 178.226C80.0313 183.561 80.4119 188.947 80.4119 199.176C80.4119 201.942 80.4799 208.562 80.5968 217.868C80.6106 218.961 80.6249 220.083 80.6397 221.228C80.6896 225.081 80.7429 245.776 80.7963 249.626C80.815 250.974 80.8324 252.211 80.848 253.311C80.8534 253.696 80.8582 254.036 80.8624 254.329C80.8666 254.624 80.8666 254.624 80.8675 254.686C80.8728 255.052 81.1712 255.346 81.5374 255.346H139.602C139.975 255.346 140.277 255.04 140.271 254.667C140.268 254.407 140.268 254.407 140.251 253.238C140.235 252.102 140.217 250.836 140.197 249.472C140.141 245.576 140.085 224.945 140.033 221.309L140.031 221.206C139.937 214.678 139.866 209.734 139.826 207.009C139.779 204.18 139.688 201.216 139.55 197.867C139.444 195.293 139.342 193.15 139.118 188.656C138.849 183.255 138.739 180.909 138.628 178.058C138.734 177.964 138.852 177.858 138.981 177.743C139.449 177.323 139.971 176.854 140.532 176.346C142.136 174.895 143.741 173.426 145.239 172.027C145.42 171.857 145.6 171.689 145.776 171.524C148.421 169.041 150.369 167.113 151.385 165.936C152.036 165.181 152.747 164.395 153.593 163.489C153.987 163.067 154.402 162.628 154.925 162.079C155.149 161.843 156.052 160.895 156.279 160.657C160.762 155.944 163.025 153.192 164.847 149.8C165.96 147.739 165.783 145.224 164.364 143.673C166.565 140.978 165.975 137.22 163.416 135.062Z" fill="#B17606"/>
<path d="M105.03 184.686C105.282 184.672 105.465 184.658 105.951 184.615C106.243 184.59 106.394 184.577 106.565 184.565C107.352 184.509 107.903 184.522 108.379 184.628C108.74 184.708 109.098 184.481 109.178 184.12C109.258 183.759 109.031 183.401 108.67 183.321C108.039 183.181 107.376 183.165 106.47 183.229C106.29 183.242 106.133 183.255 105.834 183.281C105.363 183.323 105.188 183.337 104.956 183.35C104.587 183.37 104.304 183.686 104.324 184.055C104.345 184.424 104.661 184.707 105.03 184.686Z" fill="#744B15"/>
<path d="M103.043 159.365C105.481 158.782 108.479 159.309 111.423 161.051C114.108 162.64 115.673 164.856 116.876 168.029C117.007 168.374 117.394 168.549 117.74 168.418C118.086 168.287 118.26 167.9 118.129 167.554C116.828 164.123 115.093 161.667 112.106 159.899C108.872 157.986 105.519 157.396 102.731 158.064C102.371 158.15 102.149 158.511 102.236 158.871C102.322 159.23 102.683 159.452 103.043 159.365Z" fill="#744B15"/>
<path d="M120.333 147.803C128.072 147.803 136.484 150.389 142.945 154.699C143.253 154.905 143.669 154.822 143.874 154.514C144.08 154.207 143.997 153.791 143.689 153.586C137.01 149.13 128.338 146.465 120.333 146.465C119.963 146.465 119.663 146.764 119.663 147.134C119.663 147.504 119.963 147.803 120.333 147.803Z" fill="#744B15"/>
<path d="M134 149.994C134.577 149.634 135.154 149.266 135.735 148.888C139.194 146.642 148.922 139.641 149.379 139.329C153.841 136.285 156.911 134.78 159.803 134.424C160.17 134.378 160.431 134.044 160.386 133.677C160.34 133.31 160.006 133.05 159.639 133.095C156.479 133.485 153.249 135.067 148.623 138.224C148.141 138.552 138.431 145.54 135.005 147.766C134.43 148.139 133.859 148.503 133.29 148.859C132.976 149.055 132.881 149.468 133.077 149.782C133.273 150.095 133.687 150.19 134 149.994Z" fill="#744B15"/>
<path d="M126.053 147.919C126.357 147.701 126.638 147.499 127.119 147.153C131.452 144.039 133.309 142.726 135.836 141.021C140.176 138.094 141.829 137.059 144.914 135.44C145.242 135.268 145.368 134.863 145.196 134.536C145.024 134.208 144.619 134.082 144.291 134.254C141.152 135.903 139.464 136.959 135.086 139.912C132.544 141.626 130.681 142.944 126.337 146.066C125.856 146.412 125.575 146.614 125.271 146.831C124.971 147.047 124.902 147.465 125.118 147.765C125.334 148.066 125.753 148.134 126.053 147.919Z" fill="#744B15"/>
<path d="M163.284 143.453C163.603 143.641 164.014 143.534 164.201 143.216C164.389 142.897 164.283 142.487 163.964 142.299C162.844 141.641 161.58 141.265 160.282 141.204L160.239 141.203C159.2 141.22 158.076 141.573 156.819 142.216C155.954 142.658 155.072 143.209 153.968 143.97C153.934 143.993 151.944 145.394 151.459 145.71C146.354 149.047 144 150.557 141.035 152.362C140.719 152.555 140.619 152.967 140.812 153.282C141.004 153.598 141.417 153.698 141.733 153.506C144.713 151.691 147.075 150.175 152.192 146.83C152.7 146.499 154.713 145.083 154.729 145.072C155.789 144.341 156.627 143.818 157.429 143.407C158.51 142.855 159.443 142.56 160.241 142.542C161.314 142.596 162.358 142.909 163.284 143.453Z" fill="#744B15"/>
<path d="M140.161 201.965C140.014 201.928 139.856 201.894 139.695 201.864C139.752 203.585 139.796 205.305 139.826 207.015C139.896 211.256 140.027 220.584 140.131 227.891C141.95 227.134 143.581 225.956 144.512 224.788C147.41 221.083 148.538 216.295 147.598 211.688C146.797 207.805 144.328 202.955 140.161 201.965Z" fill="#EBE8E5"/>
<path d="M141.454 209.382C141.44 209.137 141.293 208.919 141.071 208.814C140.848 208.709 140.587 208.734 140.388 208.88C138.295 210.426 134.58 211.504 133.079 211.892C117.334 215.992 98.0086 215.078 80.0564 209.382C79.9387 209.314 79.8032 209.284 79.6678 209.295C79.0514 209.358 79.0481 209.927 79.0481 210.346C79.0481 210.597 79.0481 210.958 79.0481 211.403C79.0481 212.29 79.0816 213.515 79.105 214.871C79.1519 217.495 79.2089 220.762 79.2089 222.853C79.2127 223.089 79.3399 223.305 79.5439 223.422C81.7079 224.761 85.2387 226.154 88.9806 227.154C93.8647 228.473 98.8689 229.298 103.918 229.618C105.419 229.691 106.899 229.728 108.377 229.728C116.202 229.728 123.83 228.667 133.045 226.344C136 225.598 138.66 224.845 141.323 223.161C141.512 223.042 141.629 222.836 141.635 222.612C141.792 215.527 141.457 209.455 141.454 209.382Z" fill="#744B15"/>
<path d="M97.4168 221.734L98.2007 221.935C98.5591 222.027 98.9242 221.811 99.0161 221.453C99.108 221.095 98.892 220.73 98.5335 220.638L97.7496 220.438C97.3912 220.346 97.0261 220.562 96.9342 220.92C96.8423 221.278 97.0584 221.643 97.4168 221.734Z" fill="#0B0B0A"/>
<path d="M102.376 222.495H102.892C103.262 222.495 103.562 222.195 103.562 221.826C103.562 221.456 103.262 221.156 102.892 221.156H102.376C102.006 221.156 101.706 221.456 101.706 221.826C101.706 222.195 102.006 222.495 102.376 222.495Z" fill="#0B0B0A"/>
<path d="M106.902 222.589H107.415C107.785 222.589 108.085 222.289 108.085 221.919C108.085 221.55 107.785 221.25 107.415 221.25H106.902C106.532 221.25 106.232 221.55 106.232 221.919C106.232 222.289 106.532 222.589 106.902 222.589Z" fill="#0B0B0A"/>
<path d="M111.464 222.611L112.275 222.564C112.644 222.543 112.927 222.226 112.905 221.857C112.884 221.488 112.567 221.206 112.198 221.228L111.387 221.275C111.018 221.296 110.735 221.612 110.757 221.981C110.778 222.351 111.095 222.632 111.464 222.611Z" fill="#0B0B0A"/>
<path d="M85.5269 211.551C88.8185 211.567 90.7058 212.506 91.6429 214.33C92.4528 215.905 92.6083 218.102 92.303 221.604C92.2975 221.668 92.2919 221.735 92.2859 221.811C92.2779 221.911 92.25 222.273 92.2473 222.307C92.2313 222.512 92.2177 222.676 92.2032 222.837C92.166 223.249 92.1251 223.606 92.0741 223.944C91.8526 225.412 91.4492 226.353 90.8373 226.71C90.3233 227.01 89.5562 226.971 88.467 226.617C88.1201 226.504 87.7634 226.368 87.2763 226.169C87.2948 226.177 86.5671 225.877 86.3705 225.798C86.0297 225.662 85.7602 225.564 85.5134 225.49C85.1593 225.382 84.7853 225.582 84.678 225.936C84.5707 226.29 84.7709 226.664 85.125 226.771C85.3286 226.833 85.5655 226.919 85.8739 227.042C86.062 227.117 86.7813 227.413 86.7694 227.408C87.284 227.619 87.6675 227.764 88.0516 227.889C89.4707 228.352 90.5846 228.407 91.5125 227.866C92.5809 227.244 93.1217 225.982 93.3991 224.144C93.4545 223.777 93.4983 223.394 93.5377 222.957C93.5528 222.79 93.5668 222.621 93.5832 222.411C93.586 222.376 93.6137 222.016 93.6216 221.917C93.6274 221.844 93.6328 221.779 93.6379 221.719C93.9639 217.982 93.7942 215.585 92.8349 213.718C91.6458 211.404 89.2873 210.23 85.5336 210.212C85.1636 210.21 84.8621 210.508 84.8603 210.878C84.8584 211.248 85.1569 211.549 85.5269 211.551Z" fill="#0B0B0A"/>
<path d="M89.7383 220.112C90.3336 220.425 91.004 220.64 92.2223 220.959C92.3178 220.984 92.6443 221.069 92.6962 221.083C93.2749 221.234 93.6208 221.331 93.9434 221.437C94.2948 221.553 94.6737 221.362 94.7896 221.011C94.9055 220.66 94.7145 220.282 94.3631 220.166C94.0063 220.048 93.6395 219.945 93.035 219.788C92.9821 219.774 92.6562 219.689 92.5619 219.664C91.4426 219.371 90.8356 219.176 90.361 218.927C90.0334 218.755 89.6284 218.881 89.4564 219.209C89.2844 219.536 89.4106 219.941 89.7383 220.112Z" fill="#0B0B0A"/>
<path d="M147.28 94.3503C146.923 91.3928 146.634 88.3775 146.316 85.4586C145.822 79.1142 144.962 72.8035 143.741 66.5578C142.555 61.0764 140.048 57.9456 134.784 55.3831C130.137 53.1192 123.812 53.2445 118.229 53.6683C112.646 54.0922 107.141 55.0748 101.838 56.0189L99.4371 56.4331C94.7682 57.2824 90.1668 58.4672 85.6686 59.9782C79.7582 62.0494 75.8725 67.3478 76.0268 73.1664C76.181 80.2662 76.3064 84.8421 76.3835 87.183C76.586 92.963 77.6466 110.737 78.2058 118.79C78.4604 121.548 80.7471 123.675 83.5185 123.732C84.1645 123.732 84.8008 123.78 85.4468 123.78C86.0928 123.78 86.9317 123.78 87.7609 123.723C89.7953 123.607 91.849 123.52 93.9123 123.434C98.203 123.251 102.648 123.058 106.948 122.682C110.805 122.355 114.662 121.892 118.518 121.439C121.816 121.044 125.268 120.64 128.594 120.322C132.518 119.956 140.473 119.012 144.86 118.482C147.281 118.268 149.104 116.187 148.996 113.762C148.562 108.434 147.839 98.8298 147.28 94.3503Z" fill="#D1D6DB"/>
<path d="M119.03 78.1371C118.461 73.4071 115.173 70.4304 110.796 70.7097C109.241 70.7868 107.788 71.5056 106.785 72.6942C105.232 74.5439 104.606 77.5109 104.972 81.1716C105.541 86.7879 107.103 105.554 107.112 105.746C107.153 106.248 107.573 106.634 108.077 106.633H108.163L120.38 105.535C120.901 105.484 121.286 105.026 121.247 104.504C121.238 104.301 119.859 85.0057 119.03 78.1371Z" fill="#F8F9FB"/>
<path d="M130.928 41.5109C130.426 36.3281 128.469 27.1185 125.142 22.9569C120.572 17.225 114.392 15.7126 103.795 17.7259C94.8093 19.4407 86.3148 21.0495 84.4057 29.7484C82.6991 37.4552 83.3548 44.0926 84.2708 53.2347C84.7046 57.6372 85.2349 62.6273 85.5049 68.5422C85.5204 68.9067 85.7406 69.2311 86.0738 69.3803C86.1997 69.4299 86.3337 69.456 86.4691 69.4574C86.6899 69.4583 86.9043 69.3835 87.0765 69.2455C89.8341 67.0105 97.0655 64.4288 97.1329 64.371C97.5579 64.2167 97.8185 63.7881 97.7597 63.3402C97.7597 63.1764 95.5517 47.3198 95.2817 43.9288C94.9635 40.008 94.5682 35.1143 96.8823 32.0412C98.5026 30.3471 100.626 29.2189 102.937 28.8236C103.767 28.7562 104.654 28.6502 105.55 28.5346C108.443 28.1686 111.432 27.7929 113.727 28.7369C117.583 30.3168 119.02 32.677 119.232 37.7538C119.492 43.9866 121.237 61.3172 121.257 61.4906C121.282 61.768 121.426 62.021 121.652 62.1842C121.881 62.3389 122.163 62.3945 122.433 62.3383L131.111 60.3057C131.555 60.2008 131.865 59.7986 131.853 59.3423C131.863 58.6487 131.178 44.0348 130.928 41.5109Z" fill="#D1D6DB"/>
<path d="M126.313 9.22275L130.038 1.28563C130.249 0.834402 130.055 0.297112 129.603 0.085555C129.152 -0.126002 128.614 0.0682881 128.402 0.519513L124.678 8.45664C124.466 8.90786 124.66 9.44515 125.112 9.65671C125.564 9.86827 126.101 9.67398 126.313 9.22275Z" fill="#D1D6DB"/>
<path d="M140.988 5.42055L133.036 11.1054C132.631 11.3954 132.537 11.9591 132.828 12.3643C133.118 12.7696 133.682 12.8631 134.088 12.5731L142.039 6.88821C142.445 6.59819 142.538 6.03455 142.248 5.62926C141.958 5.22398 141.393 5.13054 140.988 5.42055Z" fill="#D1D6DB"/>
<path d="M136.513 21.9817L143.756 21.8409C144.255 21.8312 144.651 21.4194 144.641 20.9212C144.632 20.4229 144.22 20.0269 143.721 20.0366L136.478 20.1773C135.979 20.187 135.583 20.5988 135.592 21.0971C135.602 21.5953 136.014 21.9914 136.513 21.9817Z" fill="#D1D6DB"/>
</svg>
